#Comment line ignore any data following # character 
#Hierarchical Translation and Rotation (.htr) file 
[Header]	
#Header keywords are followed by a single value 
FileType HTR		#Single word string
DataType HTRS		#Translation followed by rotation and scale data
FileVersion 1		#integer
NumSegments 84		#integer
NumFrames 2		#integer
DataFrameRate 30		#integer, data frame rate in this file
EulerRotationOrder ZYX
CalibrationUnits mm
RotationUnits Degrees
GlobalAxisofGravity Y
BoneLengthAxis Y
ScaleFactor 1.00
[SegmentNames&Hierarchy]
#CHILD	PARENT
MASTER GLOBAL
root MASTER
chest root
L_mid_tent01 root
R_mid_tent01 root
spine01 root
Bip01_Neck chest
L_humerus chest
R_humerus chest
weapon_bone chest
Bip01_Head Bip01_Neck
eye_left_bone Bip01_Head
eye_right_bone Bip01_Head
L_forearm L_humerus
L_front_hand L_forearm
L_weapon_bone L_forearm
L_front_hand01_01 L_front_hand
L_front_hand02_01 L_front_hand
L_front_hand03_01 L_front_hand
L_front_hand01_02 L_front_hand01_01
L_front_hand02_02 L_front_hand02_01
L_front_hand03_02 L_front_hand03_01
R_forearm R_humerus
R_front_hand R_forearm
R_weapon_bone R_forearm
R_front_hand01_01 R_front_hand
R_front_hand02_01 R_front_hand
R_front_hand03_01 R_front_hand
R_front_hand01_02 R_front_hand01_01
R_front_hand02_02 R_front_hand02_01
R_front_hand03_02 R_front_hand03_01
null_rope01_connect L_mid_tent01
Rope1_Seg01 null_rope01_connect
Rope1_Seg02 Rope1_Seg01
Rope1_Seg03 Rope1_Seg02
Rope1_Seg04 Rope1_Seg03
Rope1_Seg05 Rope1_Seg04
Rope1_Seg06 Rope1_Seg05
Rope1_Seg07 Rope1_Seg06
Rope1_Seg09 Rope1_Seg07
L_mid_hand01 Rope1_Seg09
L_mid_hand02 Rope1_Seg09
L_mid_hand03 Rope1_Seg09
null_rope02_connect R_mid_tent01
Rope2_Seg01 null_rope02_connect
Rope2_Seg02 Rope2_Seg01
Rope2_Seg03 Rope2_Seg02
Rope2_Seg04 Rope2_Seg03
Rope2_Seg05 Rope2_Seg04
Rope2_Seg06 Rope2_Seg05
Rope2_Seg07 Rope2_Seg06
Rope2_Seg09 Rope2_Seg07
R_mid_hand01 Rope2_Seg09
R_mid_hand02 Rope2_Seg09
R_mid_hand03 Rope2_Seg09
spine02 spine01
spine03 spine02
pelvis spine03
null_rope03_connect pelvis
null_rope04_connect pelvis
Rope3_Seg01 null_rope03_connect
Rope3_Seg02 Rope3_Seg01
Rope3_Seg03 Rope3_Seg02
Rope3_Seg04 Rope3_Seg03
Rope3_Seg05 Rope3_Seg04
Rope3_Seg06 Rope3_Seg05
Rope3_Seg07 Rope3_Seg06
Rope3_Seg08 Rope3_Seg07
Rope3_Seg09 Rope3_Seg08
R_rear_hand01 Rope3_Seg09
R_rear_hand02 Rope3_Seg09
R_rear_hand03 Rope3_Seg09
Rope4_Seg01 null_rope04_connect
Rope4_Seg02 Rope4_Seg01
Rope4_Seg03 Rope4_Seg02
Rope4_Seg04 Rope4_Seg03
Rope4_Seg05 Rope4_Seg04
Rope4_Seg06 Rope4_Seg05
Rope4_Seg07 Rope4_Seg06
Rope4_Seg08 Rope4_Seg07
Rope4_Seg09 Rope4_Seg08
L_rear_hand01 Rope4_Seg09
L_rear_hand02 Rope4_Seg09
L_rear_hand03 Rope4_Seg09
[BasePosition]
#SegmentName Tx, Ty, Tz, Rx, Ry, Rz, BoneLength
MASTER 0.000000 0.000000 0.000000 -90.000000 0.000000 0.000000 10.000000 
root 0.000000 0.000000 0.000000 0.000000 0.000000 0.000000 10.000000 
chest 0.000000 0.000000 0.000000 0.000000 0.000000 0.000000 10.000000 
L_mid_tent01 0.000000 0.000000 0.000000 0.000000 0.000000 0.000000 10.000000 
R_mid_tent01 0.000000 0.000000 0.000000 0.000000 0.000000 0.000000 10.000000 
spine01 0.000000 0.000000 0.000000 0.000000 0.000000 0.000000 10.000000 
Bip01_Neck 0.000000 0.000000 0.000000 0.000000 0.000000 0.000000 10.000000 
L_humerus 0.000000 0.000000 0.000000 0.000000 0.000000 0.000000 10.000000 
R_humerus 0.000000 0.000000 0.000000 0.000000 0.000000 0.000000 10.000000 
weapon_bone 0.000000 0.000000 0.000000 0.000000 0.000000 0.000000 10.000000 
Bip01_Head 0.000000 0.000000 0.000000 0.000000 0.000000 0.000000 10.000000 
eye_left_bone 0.000000 0.000000 0.000000 0.000000 0.000000 0.000000 10.000000 
eye_right_bone 0.000000 0.000000 0.000000 0.000000 0.000000 0.000000 10.000000 
L_forearm 0.000000 0.000000 0.000000 0.000000 0.000000 0.000000 10.000000 
L_front_hand 0.000000 0.000000 0.000000 0.000000 0.000000 0.000000 10.000000 
L_weapon_bone 0.000000 0.000000 0.000000 0.000000 0.000000 0.000000 10.000000 
L_front_hand01_01 0.000000 0.000000 0.000000 0.000000 0.000000 0.000000 10.000000 
L_front_hand02_01 0.000000 0.000000 0.000000 0.000000 0.000000 0.000000 10.000000 
L_front_hand03_01 0.000000 0.000000 0.000000 0.000000 0.000000 0.000000 10.000000 
L_front_hand01_02 0.000000 0.000000 0.000000 0.000000 0.000000 0.000000 10.000000 
L_front_hand02_02 0.000000 0.000000 0.000000 0.000000 0.000000 0.000000 10.000000 
L_front_hand03_02 0.000000 0.000000 0.000000 0.000000 0.000000 0.000000 10.000000 
R_forearm 0.000000 0.000000 0.000000 0.000000 0.000000 0.000000 10.000000 
R_front_hand 0.000000 0.000000 0.000000 0.000000 0.000000 0.000000 10.000000 
R_weapon_bone 0.000000 0.000000 0.000000 0.000000 0.000000 0.000000 10.000000 
R_front_hand01_01 0.000000 0.000000 0.000000 0.000000 0.000000 0.000000 10.000000 
R_front_hand02_01 0.000000 0.000000 0.000000 0.000000 0.000000 0.000000 10.000000 
R_front_hand03_01 0.000000 0.000000 0.000000 0.000000 0.000000 0.000000 10.000000 
R_front_hand01_02 0.000000 0.000000 0.000000 0.000000 0.000000 0.000000 10.000000 
R_front_hand02_02 0.000000 0.000000 0.000000 0.000000 0.000000 0.000000 10.000000 
R_front_hand03_02 0.000000 0.000000 0.000000 0.000000 0.000000 0.000000 10.000000 
null_rope01_connect 0.000000 0.000000 0.000000 0.000000 0.000000 0.000000 10.000000 
Rope1_Seg01 0.000000 0.000000 0.000000 0.000000 0.000000 0.000000 10.000000 
Rope1_Seg02 0.000000 0.000000 0.000000 0.000000 0.000000 0.000000 10.000000 
Rope1_Seg03 0.000000 0.000000 0.000000 0.000000 0.000000 0.000000 10.000000 
Rope1_Seg04 0.000000 0.000000 0.000000 0.000000 0.000000 0.000000 10.000000 
Rope1_Seg05 0.000000 0.000000 0.000000 0.000000 0.000000 0.000000 10.000000 
Rope1_Seg06 0.000000 0.000000 0.000000 0.000000 0.000000 0.000000 10.000000 
Rope1_Seg07 0.000000 0.000000 0.000000 0.000000 0.000000 0.000000 10.000000 
Rope1_Seg09 0.000000 0.000000 0.000000 0.000000 0.000000 0.000000 10.000000 
L_mid_hand01 0.000000 0.000000 0.000000 0.000000 0.000000 0.000000 10.000000 
L_mid_hand02 0.000000 0.000000 0.000000 0.000000 0.000000 0.000000 10.000000 
L_mid_hand03 0.000000 0.000000 0.000000 0.000000 0.000000 0.000000 10.000000 
null_rope02_connect 0.000000 0.000000 0.000000 0.000000 0.000000 0.000000 10.000000 
Rope2_Seg01 0.000000 0.000000 0.000000 0.000000 0.000000 0.000000 10.000000 
Rope2_Seg02 0.000000 0.000000 0.000000 0.000000 0.000000 0.000000 10.000000 
Rope2_Seg03 0.000000 0.000000 0.000000 0.000000 0.000000 0.000000 10.000000 
Rope2_Seg04 0.000000 0.000000 0.000000 0.000000 0.000000 0.000000 10.000000 
Rope2_Seg05 0.000000 0.000000 0.000000 0.000000 0.000000 0.000000 10.000000 
Rope2_Seg06 0.000000 0.000000 0.000000 0.000000 0.000000 0.000000 10.000000 
Rope2_Seg07 0.000000 0.000000 0.000000 0.000000 0.000000 0.000000 10.000000 
Rope2_Seg09 0.000000 0.000000 0.000000 0.000000 0.000000 0.000000 10.000000 
R_mid_hand01 0.000000 0.000000 0.000000 0.000000 0.000000 0.000000 10.000000 
R_mid_hand02 0.000000 0.000000 0.000000 0.000000 0.000000 0.000000 10.000000 
R_mid_hand03 0.000000 0.000000 0.000000 0.000000 0.000000 0.000000 10.000000 
spine02 0.000000 0.000000 0.000000 0.000000 0.000000 0.000000 10.000000 
spine03 0.000000 0.000000 0.000000 0.000000 0.000000 0.000000 10.000000 
pelvis 0.000000 0.000000 0.000000 0.000000 0.000000 0.000000 10.000000 
null_rope03_connect 0.000000 0.000000 0.000000 0.000000 0.000000 0.000000 10.000000 
null_rope04_connect 0.000000 0.000000 0.000000 0.000000 0.000000 0.000000 10.000000 
Rope3_Seg01 0.000000 0.000000 0.000000 0.000000 0.000000 0.000000 10.000000 
Rope3_Seg02 0.000000 0.000000 0.000000 0.000000 0.000000 0.000000 10.000000 
Rope3_Seg03 0.000000 0.000000 0.000000 0.000000 0.000000 0.000000 10.000000 
Rope3_Seg04 0.000000 0.000000 0.000000 0.000000 0.000000 0.000000 10.000000 
Rope3_Seg05 0.000000 0.000000 0.000000 0.000000 0.000000 0.000000 10.000000 
Rope3_Seg06 0.000000 0.000000 0.000000 0.000000 0.000000 0.000000 10.000000 
Rope3_Seg07 0.000000 0.000000 0.000000 0.000000 0.000000 0.000000 10.000000 
Rope3_Seg08 0.000000 0.000000 0.000000 0.000000 0.000000 0.000000 10.000000 
Rope3_Seg09 0.000000 0.000000 0.000000 0.000000 0.000000 0.000000 10.000000 
R_rear_hand01 0.000000 0.000000 0.000000 0.000000 0.000000 0.000000 10.000000 
R_rear_hand02 0.000000 0.000000 0.000000 0.000000 0.000000 0.000000 10.000000 
R_rear_hand03 0.000000 0.000000 0.000000 0.000000 0.000000 0.000000 10.000000 
Rope4_Seg01 0.000000 0.000000 0.000000 0.000000 0.000000 0.000000 10.000000 
Rope4_Seg02 0.000000 0.000000 0.000000 0.000000 0.000000 0.000000 10.000000 
Rope4_Seg03 0.000000 0.000000 0.000000 0.000000 0.000000 0.000000 10.000000 
Rope4_Seg04 0.000000 0.000000 0.000000 0.000000 0.000000 0.000000 10.000000 
Rope4_Seg05 0.000000 0.000000 0.000000 0.000000 0.000000 0.000000 10.000000 
Rope4_Seg06 0.000000 0.000000 0.000000 0.000000 0.000000 0.000000 10.000000 
Rope4_Seg07 0.000000 0.000000 0.000000 0.000000 0.000000 0.000000 10.000000 
Rope4_Seg08 0.000000 0.000000 0.000000 0.000000 0.000000 0.000000 10.000000 
Rope4_Seg09 0.000000 0.000000 0.000000 0.000000 0.000000 0.000000 10.000000 
L_rear_hand01 0.000000 0.000000 0.000000 0.000000 0.000000 0.000000 10.000000 
L_rear_hand02 0.000000 0.000000 0.000000 0.000000 0.000000 0.000000 10.000000 
L_rear_hand03 0.000000 0.000000 0.000000 0.000000 0.000000 0.000000 10.000000 
#Beginning of Data. Separated by tabs
#Fr	Tx	Ty	Tz	Rx	Ry	Rz	SF
[MASTER]
7 -115.836998 897.166138 149.787598 0.001660 0.001660 0.001660 916.930542
8 -135.301743 1099.166016 313.998871 0.001660 0.001660 0.001660 1151.115967
[root]
7 89.959846 -3.347855 1287.999023 -82.973007 23.657223 -99.495636 1291.141113
8 100.027916 13.719863 1224.285889 -83.842270 15.376110 -98.657372 1228.441895
[chest]
7 -84.512650 -34.090519 0.000000 3.373016 5.348766 159.165863 91.129311
8 -84.512650 -34.090519 0.000000 4.330866 6.469400 157.585602 91.129311
[L_mid_tent01]
7 27.299017 22.179087 -249.918701 -1.189963 17.078775 68.416061 252.381668
8 27.299006 22.179085 -249.918701 -2.000525 21.339958 67.299889 252.381668
[R_mid_tent01]
7 23.228794 24.509907 226.238495 171.441574 -25.223787 62.099098 228.744751
8 23.228794 24.509907 226.238495 171.065826 -24.109667 63.905067 228.744751
[spine01]
7 -0.361383 -0.195265 0.000000 -0.000001 -0.000007 22.052340 0.410763
8 -0.361383 -0.195265 0.000000 -0.000001 -0.000007 22.052340 0.410763
[Bip01_Neck]
7 165.484543 71.581718 0.000119 176.643677 -1.657967 43.431911 180.302734
8 165.484543 71.581718 0.000119 176.643677 -1.657967 43.431911 180.302734
[L_humerus]
7 -13.983130 -135.272980 -120.471481 6.721958 74.621857 96.751923 181.680161
8 -13.983130 -135.272980 -120.471481 12.467258 76.897591 102.556976 181.680161
[R_humerus]
7 -13.983309 -135.273102 125.287651 139.121536 -86.931015 -43.925472 184.909012
8 -13.983309 -135.273102 125.287651 177.469711 -82.246857 -82.352554 184.909012
[weapon_bone]
7 235.964890 -300.705902 0.000000 0.000000 -89.951546 -128.212341 382.234833
8 235.964890 -300.705902 0.000000 0.000000 -89.951546 -128.212341 382.234833
[Bip01_Head]
7 213.636154 185.181274 18.674181 4.962490 2.797846 -43.898743 283.339447
8 213.673859 185.076447 20.027399 4.962490 2.797846 -43.898743 283.391785
[eye_left_bone]
7 -24.626970 125.451866 -64.772606 0.000000 -90.000000 -99.840431 143.318359
8 -24.626970 125.451866 -64.772606 0.000000 -90.000000 -99.840431 143.318359
[eye_right_bone]
7 -24.626970 125.451866 64.327362 0.000000 -89.965736 80.156380 143.117676
8 -24.626970 125.451866 64.327362 0.000000 -89.965736 80.156380 143.117676
[L_forearm]
7 322.776093 0.000000 -0.000119 0.000401 -0.002313 -109.654572 322.776093
8 322.776093 0.000000 -0.000119 0.000402 -0.002313 -109.713531 322.776093
[L_front_hand]
7 241.149185 -0.042021 -3.300071 -170.027237 -1.834594 -27.425117 241.171753
8 241.149185 -0.042021 -3.300071 -169.847839 -1.837354 -27.421879 241.171753
[L_weapon_bone]
7 156.183838 0.000000 0.000000 0.000014 0.000007 0.000001 156.183838
8 156.183838 0.000000 0.000000 0.000014 0.000007 0.000001 156.183838
[L_front_hand01_01]
7 86.095154 20.947098 -0.655860 -0.322964 -0.505554 70.186295 88.609184
8 86.095154 20.947098 -0.655860 -0.304872 -0.514302 68.276085 88.609184
[L_front_hand02_01]
7 86.935165 -11.437475 24.513514 146.960190 -57.330456 -52.657890 91.046425
8 86.935165 -11.437475 24.513514 144.546585 -56.255684 -49.772915 91.046425
[L_front_hand03_01]
7 86.637497 -14.123976 -20.424902 -146.989075 55.546074 -54.434807 90.126129
8 86.637497 -14.123976 -20.424902 -144.732681 54.475929 -51.681915 90.126129
[L_front_hand01_02]
7 71.020905 -0.000179 0.000030 0.000321 -0.002325 -105.728416 71.020905
8 71.020905 -0.000179 0.000030 0.000320 -0.002325 -105.665085 71.020905
[L_front_hand02_02]
7 71.020927 -0.000119 0.000060 0.000321 -0.002325 -105.728416 71.020927
8 71.020927 -0.000119 0.000060 0.000320 -0.002325 -105.665085 71.020927
[L_front_hand03_02]
7 71.020905 -0.000060 0.000060 0.000321 -0.002325 -105.728416 71.020905
8 71.020905 -0.000060 0.000060 0.000320 -0.002325 -105.665085 71.020905
[R_forearm]
7 322.776428 -0.000060 0.000030 0.201930 0.065692 -108.365883 322.776428
8 322.776428 -0.000060 0.000030 0.201887 0.065824 -108.441071 322.776428
[R_front_hand]
7 238.847015 -0.006795 2.210259 -11.275249 -10.644036 -26.315348 238.857239
8 238.847015 -0.006795 2.210259 -11.454716 -10.646342 -26.312872 238.857239
[R_weapon_bone]
7 155.664093 0.002503 -0.000030 0.003487 0.001180 -90.988914 155.664078
8 155.664093 0.002503 -0.000030 0.003487 0.001180 -90.988930 155.664078
[R_front_hand01_01]
7 87.624611 14.231146 22.918642 -146.976166 -57.336147 52.779388 91.683487
8 87.624611 14.231146 22.918642 -144.302139 -56.138660 49.586018 91.683487
[R_front_hand02_01]
7 89.356956 14.367283 -19.491137 147.400665 55.711205 55.166904 92.579636
8 89.356956 14.367283 -19.491137 144.866989 54.526863 52.081070 92.579636
[R_front_hand03_01]
7 87.286232 -22.307278 -0.143439 0.123256 -0.437630 -70.429710 90.091743
8 87.286232 -22.307278 -0.143439 0.104166 -0.441299 -68.306503 90.091743
[R_front_hand01_02]
7 71.020905 0.000060 0.000119 0.002328 -0.000296 104.485847 71.020905
8 71.020905 0.000060 0.000119 0.002329 -0.000293 104.364967 71.020905
[R_front_hand02_02]
7 71.020844 -0.000030 -0.000119 0.002328 -0.000296 104.485847 71.020836
8 71.020844 -0.000030 -0.000119 0.002329 -0.000293 104.364967 71.020836
[R_front_hand03_02]
7 71.020905 0.000000 0.000030 0.002328 -0.000296 104.485847 71.020905
8 71.020905 0.000000 0.000030 0.002329 -0.000293 104.364967 71.020905
[null_rope01_connect]
7 328.732483 0.000000 -0.000238 -135.819656 -75.175537 132.367752 328.732483
8 328.732483 0.000000 -0.000238 -145.550629 -71.107750 150.970901 328.732483
[Rope1_Seg01]
7 0.000028 -0.000189 0.000019 -12.690960 1.993721 -178.436615 0.000192
8 0.000027 -0.000214 0.000023 -16.647711 2.900676 159.034378 0.000217
[Rope1_Seg02]
7 139.999863 -0.000179 0.000000 -2.545617 11.645211 -17.352257 139.999863
8 139.999863 -0.000179 0.000000 -1.255490 10.766906 -13.490745 139.999863
[Rope1_Seg03]
7 139.999924 0.000060 -0.000060 -1.244532 9.300788 -20.130037 139.999924
8 139.999924 0.000060 -0.000060 0.284680 4.687765 -8.835895 139.999924
[Rope1_Seg04]
7 139.999924 -0.000060 -0.000119 -9.435641 25.486864 -20.157698 139.999924
8 139.999924 -0.000060 -0.000119 -1.949569 11.995481 -11.961540 139.999924
[Rope1_Seg05]
7 139.999832 0.000119 -0.000060 -107.510300 46.053677 -27.448565 139.999832
8 139.999832 0.000119 -0.000060 -33.245972 31.265568 -28.148041 139.999832
[Rope1_Seg06]
7 139.999954 0.000119 -0.000060 -26.993286 6.075573 16.280193 139.999954
8 139.999954 0.000119 -0.000060 -106.138786 21.100634 -5.309537 139.999954
[Rope1_Seg07]
7 139.999985 0.000060 0.000000 -4.357140 -0.658314 5.309526 139.999985
8 139.999985 0.000060 0.000000 -16.803370 -0.240521 9.546883 139.999985
[Rope1_Seg09]
7 121.602913 0.000119 -0.000089 -89.793175 -1.359789 0.847147 121.602913
8 121.602913 0.000119 -0.000089 -89.793175 -1.359789 0.847147 121.602913
[L_mid_hand01]
7 103.859421 1.038730 8.195221 112.987701 -50.601227 -18.681456 104.187431
8 103.859421 1.038730 8.195221 111.216125 -46.770248 -16.325296 104.187431
[L_mid_hand02]
7 105.572853 -4.139662 -10.864139 -153.018723 36.866009 -49.082401 106.211075
8 105.572853 -4.139662 -10.864139 -150.384232 34.904903 -44.592545 106.211075
[L_mid_hand03]
7 104.641464 17.579376 -3.913581 -11.755013 14.733717 54.618225 106.179977
8 104.641464 17.579376 -3.913581 -12.781254 13.855400 50.452682 106.179977
[null_rope02_connect]
7 328.732849 0.000179 -0.000119 179.362717 59.503284 -10.630032 328.732849
8 328.732849 0.000179 -0.000119 -171.340836 62.320694 -7.124043 328.732849
[Rope2_Seg01]
7 0.000043 0.000133 0.000000 79.939743 28.235277 13.405274 0.000140
8 0.000044 0.000130 0.000000 77.833984 21.383413 6.461826 0.000137
[Rope2_Seg02]
7 139.999741 -0.000060 -0.000119 -0.318040 13.020030 -4.720038 139.999756
8 139.999741 -0.000060 -0.000119 -3.847293 11.192994 -13.430699 139.999756
[Rope2_Seg03]
7 140.000107 0.000030 0.000000 -1.664991 17.561726 -17.375668 140.000107
8 140.000107 0.000030 0.000000 -2.817457 10.100235 -27.383621 140.000107
[Rope2_Seg04]
7 139.999802 0.000000 -0.000060 -12.917820 35.880199 -0.081070 139.999802
8 139.999802 0.000000 -0.000060 -7.340446 33.664051 -1.657453 139.999802
[Rope2_Seg05]
7 139.999985 -0.000060 0.000119 -36.714451 22.521355 28.602108 139.999985
8 139.999985 -0.000060 0.000119 -39.425999 37.471783 24.420265 139.999985
[Rope2_Seg06]
7 139.999893 -0.000030 -0.000119 -7.490059 0.930773 7.882347 139.999893
8 139.999893 -0.000030 -0.000119 -13.932915 4.172187 10.993083 139.999893
[Rope2_Seg07]
7 139.999893 0.000060 -0.000060 -3.299470 -0.001080 3.856708 139.999893
8 139.999893 0.000060 -0.000060 -5.809266 0.620592 5.355111 139.999893
[Rope2_Seg09]
7 121.338966 0.000089 -0.000060 33.793236 -1.359788 -0.847141 121.338966
8 121.338966 0.000089 -0.000060 33.793236 -1.359788 -0.847141 121.338966
[R_mid_hand01]
7 104.680779 11.144459 -10.335981 -25.192726 41.648338 57.439434 105.778534
8 104.680779 11.144459 -10.335981 -27.387484 40.402237 54.098232 105.778534
[R_mid_hand02]
7 104.070427 2.443552 8.231699 60.800945 -59.436069 26.232430 104.424065
8 104.070427 2.443552 8.231699 62.946606 -56.952812 23.709986 104.424065
[R_mid_hand03]
7 106.028137 -11.221827 -5.996406 -174.361145 14.799507 -66.152634 106.788818
8 106.028137 -11.221827 -5.996406 -173.630432 14.503002 -63.260223 106.788818
[spine02]
7 129.756927 0.001550 0.000119 0.479968 -4.031352 -14.643958 129.756927
8 129.756927 0.001550 0.000119 0.491123 -4.029973 -14.821502 129.756927
[spine03]
7 78.614014 0.081635 -4.899004 1.970051 3.797495 17.550753 78.766556
8 78.614006 0.081635 -4.899005 1.975773 3.792778 17.661030 78.766541
[pelvis]
7 169.435242 0.051022 0.000000 -0.068779 -0.178342 16.268339 169.435257
8 169.435242 0.051022 0.000000 -0.069152 -0.178198 16.508181 169.435257
[null_rope03_connect]
7 -1.257226 -2.466202 137.391083 -59.600811 -75.038414 85.341560 137.418976
8 -1.257226 -2.466202 137.391083 -56.349377 -77.105247 90.113976 137.418976
[null_rope04_connect]
7 -1.259640 -2.480268 -137.844437 -59.600811 -75.038414 85.341560 137.872513
8 -1.259640 -2.480268 -137.844437 -56.349377 -77.105247 90.113976 137.872513
[Rope3_Seg01]
7 0.000067 -0.000111 0.000000 15.390445 3.597805 -94.346222 0.000130
8 0.000065 -0.000123 0.000000 19.771851 -12.765507 -91.041824 0.000139
[Rope3_Seg02]
7 139.999924 -0.000119 0.000060 6.695621 36.980057 17.438898 139.999924
8 139.999924 -0.000119 0.000060 9.822398 42.047771 21.269964 139.999924
[Rope3_Seg03]
7 139.999924 -0.000119 0.000119 37.171913 42.459595 25.469900 139.999924
8 139.999924 -0.000119 0.000119 57.537910 49.282944 30.628273 139.999924
[Rope3_Seg04]
7 139.999924 0.000119 0.000000 11.240596 6.714001 -5.582412 139.999924
8 139.999924 0.000119 0.000000 11.806337 5.570488 -6.210722 139.999924
[Rope3_Seg05]
7 139.999924 -0.000238 0.000060 -1.162246 -7.660274 -8.285463 139.999924
8 139.999924 -0.000238 0.000060 -3.029543 -7.579679 -5.864381 139.999924
[Rope3_Seg06]
7 139.999893 -0.000119 -0.000060 1.569707 -2.007218 -5.543775 139.999893
8 139.999893 -0.000119 -0.000060 0.964695 -3.282992 -5.767941 139.999893
[Rope3_Seg07]
7 139.999771 0.000060 -0.000119 1.349118 -1.276350 -4.109803 139.999771
8 139.999771 0.000060 -0.000119 1.298028 -2.018965 -4.731866 139.999771
[Rope3_Seg08]
7 139.999985 -0.000060 0.000000 0.926963 -0.761582 -2.269895 139.999985
8 139.999985 -0.000060 0.000000 0.896338 -1.223907 -2.703796 139.999985
[Rope3_Seg09]
7 90.185997 -0.000179 -0.000060 89.793228 -1.359877 -0.847183 90.185997
8 90.185997 -0.000179 -0.000060 89.793228 -1.359877 -0.847183 90.185997
[R_rear_hand01]
7 103.366196 -6.073594 -10.757982 -172.199188 23.472191 -60.427750 104.101845
8 103.366196 -6.073594 -10.757982 -170.781250 22.977592 -56.830051 104.101845
[R_rear_hand02]
7 100.509819 12.039542 -7.992327 -21.205954 33.223911 57.720810 101.543350
8 100.509819 12.039542 -7.992327 -23.185038 31.960989 54.046932 101.543350
[R_rear_hand03]
7 101.539970 5.215704 5.435467 78.624985 -59.850563 13.735100 101.819031
8 101.539970 5.215704 5.435467 79.639069 -56.567928 12.539778 101.819031
[Rope4_Seg01]
7 -0.000018 -0.000067 -0.000153 -106.037102 15.261294 -138.275192 0.000167
8 -0.000018 -0.000065 -0.000153 -95.485092 -0.181335 -136.001816 0.000167
[Rope4_Seg02]
7 139.999985 0.000060 0.000119 -3.922221 3.452053 6.650190 139.999985
8 139.999985 0.000060 0.000119 -1.727692 5.874867 5.720117 139.999985
[Rope4_Seg03]
7 139.999924 0.000000 -0.000238 -8.422153 3.573930 9.952746 139.999924
8 139.999924 0.000000 -0.000238 -4.599564 8.369442 9.120040 139.999924
[Rope4_Seg04]
7 139.999985 0.000000 0.000119 -18.891888 -1.004905 14.682658 139.999985
8 139.999985 0.000000 0.000119 -18.335701 6.628421 15.020665 139.999985
[Rope4_Seg05]
7 139.999802 -0.000060 -0.000119 -42.245846 11.150143 24.959061 139.999802
8 139.999802 -0.000060 -0.000119 -65.704659 15.695648 22.483501 139.999802
[Rope4_Seg06]
7 139.999924 0.000000 0.000060 -35.825298 -2.610868 14.619496 139.999924
8 139.999924 0.000000 0.000060 -55.401382 -5.875266 16.617125 139.999924
[Rope4_Seg07]
7 139.999802 0.000000 0.000000 -11.346442 -5.137677 3.900848 139.999802
8 139.999802 0.000000 0.000000 -7.906237 -7.389006 1.099186 139.999802
[Rope4_Seg08]
7 139.999924 0.000000 0.000119 -6.241959 -3.101555 1.508656 139.999924
8 139.999924 0.000000 0.000119 -4.211768 -3.912435 0.036641 139.999924
[Rope4_Seg09]
7 90.185791 0.000060 0.000060 -135.617828 2.228885 0.850567 90.185791
8 90.185791 0.000060 0.000060 -135.617828 2.228885 0.850567 90.185791
[L_rear_hand01]
7 101.696655 -8.392275 -7.654577 -30.967802 -24.555588 142.276382 102.329041
8 101.696655 -8.392275 -7.654577 -31.684452 -23.583008 144.025742 102.329041
[L_rear_hand02]
7 102.726799 -1.568258 5.773216 82.497200 40.606583 171.238342 102.900848
8 102.726799 -1.568258 5.773216 82.701553 38.753956 171.553619 102.900848
[L_rear_hand03]
7 104.552910 9.721220 -10.420293 -164.603775 -19.511108 -140.104065 105.519653
8 104.552910 9.721220 -10.420293 -163.975403 -19.004421 -142.009338 105.519653
